<mxfile host="app.diagrams.net" modified="2024-01-14T05:31:01.645Z" agent="Mozilla/5.0 (Windows NT 10.0; Win64; x64) AppleWebKit/537.36 (KHTML, like Gecko) Chrome/120.0.0.0 Safari/537.36" etag="2xdtDvgoOipRoQFnasCX" version="22.1.18" type="device">
  <diagram name="Page-1" id="QIkcQzHLIOkFE77ziA2R">
    <mxGraphModel dx="3290" dy="2392" grid="1" gridSize="10" guides="1" tooltips="1" connect="1" arrows="1" fold="1" page="1" pageScale="1" pageWidth="850" pageHeight="1100" math="0" shadow="0">
      <root>
        <mxCell id="0" />
        <mxCell id="1" parent="0" />
        <mxCell id="6uxXo-0-2OW7-elfPDbo-1" value="" style="rounded=0;whiteSpace=wrap;html=1;rotation=90;" vertex="1" parent="1">
          <mxGeometry x="-941.61" y="180.4" width="1110.32" height="667.59" as="geometry" />
        </mxCell>
        <mxCell id="6uxXo-0-2OW7-elfPDbo-2" value="Shopping&lt;br&gt;Manager" style="shape=umlActor;verticalLabelPosition=bottom;verticalAlign=top;html=1;" vertex="1" parent="1">
          <mxGeometry x="-830" y="405" width="30" height="60" as="geometry" />
        </mxCell>
        <mxCell id="6uxXo-0-2OW7-elfPDbo-3" value="Add Products" style="ellipse;whiteSpace=wrap;html=1;" vertex="1" parent="1">
          <mxGeometry x="-670" y="205" width="140" height="70" as="geometry" />
        </mxCell>
        <mxCell id="6uxXo-0-2OW7-elfPDbo-4" value="Delete Products" style="ellipse;whiteSpace=wrap;html=1;" vertex="1" parent="1">
          <mxGeometry x="-600" y="335" width="140" height="70" as="geometry" />
        </mxCell>
        <mxCell id="6uxXo-0-2OW7-elfPDbo-5" value="Print Product List" style="ellipse;whiteSpace=wrap;html=1;" vertex="1" parent="1">
          <mxGeometry x="-590" y="485" width="140" height="70" as="geometry" />
        </mxCell>
        <mxCell id="6uxXo-0-2OW7-elfPDbo-6" value="Save to File" style="ellipse;whiteSpace=wrap;html=1;" vertex="1" parent="1">
          <mxGeometry x="-630" y="635" width="140" height="70" as="geometry" />
        </mxCell>
        <mxCell id="6uxXo-0-2OW7-elfPDbo-7" value="Open GUI" style="ellipse;whiteSpace=wrap;html=1;" vertex="1" parent="1">
          <mxGeometry x="-680" y="775" width="140" height="70" as="geometry" />
        </mxCell>
        <mxCell id="6uxXo-0-2OW7-elfPDbo-8" value="" style="endArrow=classic;html=1;rounded=0;entryX=0;entryY=0.5;entryDx=0;entryDy=0;" edge="1" parent="1" target="6uxXo-0-2OW7-elfPDbo-3">
          <mxGeometry width="50" height="50" relative="1" as="geometry">
            <mxPoint x="-800" y="425" as="sourcePoint" />
            <mxPoint x="-360" y="535" as="targetPoint" />
          </mxGeometry>
        </mxCell>
        <mxCell id="6uxXo-0-2OW7-elfPDbo-9" value="" style="endArrow=classic;html=1;rounded=0;entryX=0;entryY=0.5;entryDx=0;entryDy=0;" edge="1" parent="1" target="6uxXo-0-2OW7-elfPDbo-4">
          <mxGeometry width="50" height="50" relative="1" as="geometry">
            <mxPoint x="-800" y="425" as="sourcePoint" />
            <mxPoint x="-660" y="250" as="targetPoint" />
          </mxGeometry>
        </mxCell>
        <mxCell id="6uxXo-0-2OW7-elfPDbo-10" value="" style="endArrow=classic;html=1;rounded=0;entryX=0;entryY=0.286;entryDx=0;entryDy=0;entryPerimeter=0;" edge="1" parent="1" target="6uxXo-0-2OW7-elfPDbo-5">
          <mxGeometry width="50" height="50" relative="1" as="geometry">
            <mxPoint x="-800" y="425" as="sourcePoint" />
            <mxPoint x="-590" y="380" as="targetPoint" />
          </mxGeometry>
        </mxCell>
        <mxCell id="6uxXo-0-2OW7-elfPDbo-11" value="" style="endArrow=classic;html=1;rounded=0;entryX=0.043;entryY=0.3;entryDx=0;entryDy=0;entryPerimeter=0;" edge="1" parent="1" target="6uxXo-0-2OW7-elfPDbo-6">
          <mxGeometry width="50" height="50" relative="1" as="geometry">
            <mxPoint x="-800" y="425" as="sourcePoint" />
            <mxPoint x="-580" y="515" as="targetPoint" />
          </mxGeometry>
        </mxCell>
        <mxCell id="6uxXo-0-2OW7-elfPDbo-12" value="" style="endArrow=classic;html=1;rounded=0;entryX=0.071;entryY=0.286;entryDx=0;entryDy=0;entryPerimeter=0;" edge="1" parent="1" target="6uxXo-0-2OW7-elfPDbo-7">
          <mxGeometry width="50" height="50" relative="1" as="geometry">
            <mxPoint x="-800" y="425" as="sourcePoint" />
            <mxPoint x="-614" y="666" as="targetPoint" />
          </mxGeometry>
        </mxCell>
        <mxCell id="6uxXo-0-2OW7-elfPDbo-15" value="User" style="shape=umlActor;verticalLabelPosition=bottom;verticalAlign=top;html=1;" vertex="1" parent="1">
          <mxGeometry x="40" y="397.99" width="30" height="60" as="geometry" />
        </mxCell>
        <mxCell id="6uxXo-0-2OW7-elfPDbo-16" value="View ShoppingCart" style="ellipse;whiteSpace=wrap;html=1;" vertex="1" parent="1">
          <mxGeometry x="-290" y="630" width="140" height="70" as="geometry" />
        </mxCell>
        <mxCell id="6uxXo-0-2OW7-elfPDbo-17" value="Add to shopping&amp;nbsp;" style="ellipse;whiteSpace=wrap;html=1;" vertex="1" parent="1">
          <mxGeometry x="-300" y="485" width="140" height="70" as="geometry" />
        </mxCell>
        <mxCell id="6uxXo-0-2OW7-elfPDbo-18" value="Select a Product&lt;br&gt;(Electronics / Clothing)" style="ellipse;whiteSpace=wrap;html=1;" vertex="1" parent="1">
          <mxGeometry x="-280" y="350" width="140" height="70" as="geometry" />
        </mxCell>
        <mxCell id="6uxXo-0-2OW7-elfPDbo-19" value="View Product List" style="ellipse;whiteSpace=wrap;html=1;" vertex="1" parent="1">
          <mxGeometry x="-250" y="230" width="140" height="70" as="geometry" />
        </mxCell>
        <mxCell id="6uxXo-0-2OW7-elfPDbo-21" value="Calculate the Cost" style="ellipse;whiteSpace=wrap;html=1;" vertex="1" parent="1">
          <mxGeometry x="-220" y="777.99" width="140" height="70" as="geometry" />
        </mxCell>
        <mxCell id="6uxXo-0-2OW7-elfPDbo-23" value="" style="endArrow=classic;html=1;rounded=0;entryX=1;entryY=0.5;entryDx=0;entryDy=0;" edge="1" parent="1" target="6uxXo-0-2OW7-elfPDbo-19">
          <mxGeometry width="50" height="50" relative="1" as="geometry">
            <mxPoint x="40" y="417.99" as="sourcePoint" />
            <mxPoint x="-310" y="517.99" as="targetPoint" />
          </mxGeometry>
        </mxCell>
        <mxCell id="6uxXo-0-2OW7-elfPDbo-24" value="" style="endArrow=classic;html=1;rounded=0;entryX=1;entryY=0.5;entryDx=0;entryDy=0;" edge="1" parent="1" target="6uxXo-0-2OW7-elfPDbo-18">
          <mxGeometry width="50" height="50" relative="1" as="geometry">
            <mxPoint x="40" y="417.99" as="sourcePoint" />
            <mxPoint x="-90" y="332.99" as="targetPoint" />
          </mxGeometry>
        </mxCell>
        <mxCell id="6uxXo-0-2OW7-elfPDbo-25" value="" style="endArrow=classic;html=1;rounded=0;entryX=1;entryY=0.5;entryDx=0;entryDy=0;" edge="1" parent="1" target="6uxXo-0-2OW7-elfPDbo-17">
          <mxGeometry width="50" height="50" relative="1" as="geometry">
            <mxPoint x="40" y="417.99" as="sourcePoint" />
            <mxPoint x="-140" y="442.99" as="targetPoint" />
          </mxGeometry>
        </mxCell>
        <mxCell id="6uxXo-0-2OW7-elfPDbo-26" value="" style="endArrow=classic;html=1;rounded=0;entryX=0.964;entryY=0.243;entryDx=0;entryDy=0;entryPerimeter=0;" edge="1" parent="1" target="6uxXo-0-2OW7-elfPDbo-16">
          <mxGeometry width="50" height="50" relative="1" as="geometry">
            <mxPoint x="40" y="417.99" as="sourcePoint" />
            <mxPoint x="-150" y="572.99" as="targetPoint" />
          </mxGeometry>
        </mxCell>
        <mxCell id="6uxXo-0-2OW7-elfPDbo-27" value="" style="endArrow=classic;html=1;rounded=0;entryX=0.957;entryY=0.229;entryDx=0;entryDy=0;entryPerimeter=0;" edge="1" parent="1" target="6uxXo-0-2OW7-elfPDbo-21">
          <mxGeometry width="50" height="50" relative="1" as="geometry">
            <mxPoint x="40" y="417.99" as="sourcePoint" />
            <mxPoint x="-145" y="674.99" as="targetPoint" />
          </mxGeometry>
        </mxCell>
        <mxCell id="6uxXo-0-2OW7-elfPDbo-28" value="&lt;font style=&quot;font-size: 18px;&quot;&gt;&lt;b&gt;Westminster Shopping Cart&lt;/b&gt;&lt;/font&gt;" style="text;html=1;align=center;verticalAlign=middle;resizable=0;points=[];autosize=1;strokeColor=none;fillColor=none;" vertex="1" parent="1">
          <mxGeometry x="-516.45" y="60" width="260" height="40" as="geometry" />
        </mxCell>
      </root>
    </mxGraphModel>
  </diagram>
</mxfile>
